# xmcd CD database file
#
# Track frame offsets:
#	150
#	19204
#	38703
#	55421
#	73191
#	91689
#	110723
#	130275
#	145664
#	164995
#
# Disc length: 2463 seconds
#
# Revision: 7
# Processed by: cddbd v1.5PL3 Copyright (c) Steve Scherf et al.
# Submitted via: CDex 1.51
#
DISCID=92099d0a
DTITLE=Fevertree - Quest For A Cure
DYEAR=2004
DGENRE=Country
TTITLE0=You Can Believe
TTITLE1=Addicted
TTITLE2=A Million Miles
TTITLE3=Changed
TTITLE4=Beautiful
TTITLE5=Northumbrian Orchard
TTITLE6=Angels' Door
TTITLE7=Come Undone
TTITLE8=Something in the Way
TTITLE9=And You Wait
EXTD=YEAR: 2004
EXTT0=
EXTT1=
EXTT2=
EXTT3=
EXTT4=
EXTT5=
EXTT6=
EXTT7=
EXTT8=
EXTT9=
PLAYORDER=
